<svg class="d-inline-block align-text-middle" xmlns="http://www.w3.org/2000/svg" style="height: 3rem;width: 3rem;" width="233.000000pt" height="224.000000pt" viewBox="0 0 233.000000 224.000000" preserveAspectRatio="xMidYMid meet">

                <g transform="translate(0.000000,224.000000) scale(0.100000,-0.100000)" fill="#000000" stroke="none">
                    <path d="M995 2116 c-133 -26 -293 -92 -402 -167 -128 -88 -270 -253 -343
-399 -205 -407 -119 -910 209 -1223 159 -151 326 -238 541 -282 124 -25 340
-16 468 19 300 83 538 281 674 561 252 520 33 1151 -487 1401 -156 75 -245 96
-430 100 -107 2 -183 -1 -230 -10z m470 -60 c292 -87 519 -280 646 -550 131
-280 127 -589 -11 -871 -108 -222 -304 -403 -535 -495 -238 -95 -528 -91 -766
9 -224 94 -429 293 -529 515 -17 37 -43 111 -58 164 -24 88 -27 113 -26 257 1
130 5 174 22 237 53 193 146 352 286 486 155 148 315 229 546 276 14 2 95 3
180 1 133 -2 168 -7 245 -29z"></path>
                    <path d="M1130 2035 c0 -28 16 -31 44 -10 11 8 26 15 34 15 12 0 12 -3 1 -16
-17 -21 -64 -44 -89 -44 -13 0 -20 -5 -17 -12 2 -7 16 -12 31 -11 31 2 30 4
10 -35 -8 -17 -14 -48 -12 -69 3 -35 5 -37 53 -50 28 -7 54 -13 58 -13 4 0 7
33 5 73 -3 71 -3 72 -31 75 -16 2 -26 8 -24 15 3 8 24 11 61 9 43 -2 57 1 54
10 -3 7 -24 14 -49 16 l-44 3 24 18 c35 27 18 44 -35 38 -25 -2 -47 -1 -50 4
-10 18 -24 9 -24 -16z m90 -156 c0 -40 -3 -49 -18 -49 -13 0 -17 7 -16 28 1
15 3 28 3 30 4 10 -1 17 -12 18 -28 2 -30 5 -12 18 10 7 27 11 37 8 14 -3 18
-14 18 -53z"></path>
                    <path d="M1022 2021 c14 -23 33 -23 33 0 0 8 -10 15 -23 17 -21 3 -22 2 -10
-17z"></path>
                    <path d="M1010 1922 c0 -9 9 -32 20 -50 24 -38 21 -45 -20 -62 -44 -18 -27
-30 43 -30 45 0 77 -7 115 -25 61 -28 137 -33 168 -11 18 14 18 15 -6 20 -14
3 -47 7 -75 9 -42 3 -88 12 -164 34 -11 3 -12 6 -3 15 17 17 15 23 -13 36 -20
9 -25 18 -23 38 2 20 -3 28 -19 35 -18 7 -23 5 -23 -9z"></path>
                    <path d="M1590 1915 c0 -9 -10 -20 -22 -25 -20 -8 -18 -9 14 -9 43 -1 55 11
32 33 -19 20 -24 20 -24 1z"></path>
                    <path d="M1710 1865 c0 -8 -6 -15 -12 -16 -14 -1 29 -16 50 -18 19 -2 14 27
-7 39 -26 13 -31 13 -31 -5z"></path>
                    <path d="M683 1863 c-7 -3 -13 -10 -13 -18 0 -7 -7 -18 -15 -25 -18 -15 -19
-30 -2 -30 19 0 88 50 82 59 -6 11 -37 19 -52 14z"></path>
                    <path d="M1493 1838 c4 -16 -3 -35 -24 -62 -30 -41 -41 -106 -17 -106 7 0 39
28 71 61 l58 61 -55 -31 c-53 -29 -56 -30 -56 -11 0 13 12 28 29 37 26 15 28
20 19 45 -12 33 -33 38 -25 6z"></path>
                    <path d="M1629 1832 c6 -11 16 -22 23 -24 18 -6 0 -28 -23 -28 -12 0 -17 -4
-14 -11 9 -13 -20 -45 -67 -75 -42 -27 -49 -44 -17 -44 23 0 89 60 89 82 0 9
12 12 44 10 37 -3 45 -8 50 -28 9 -34 29 -31 24 4 -3 15 -9 36 -13 46 -8 17
-5 19 24 13 55 -11 31 16 -35 39 -32 12 -67 25 -78 29 -16 7 -17 6 -7 -13z
m81 -62 c0 -5 -9 -10 -21 -10 -11 0 -17 5 -14 10 3 6 13 10 21 10 8 0 14 -4
14 -10z"></path>
                    <path d="M694 1782 c4 -12 -6 -25 -38 -45 -24 -15 -51 -27 -60 -27 -22 0 -20
-17 4 -30 22 -12 33 -8 68 23 29 27 28 11 -3 -35 -14 -20 -25 -41 -25 -47 0
-21 26 -17 53 7 l27 26 0 -36 c0 -34 23 -68 37 -54 4 4 2 30 -4 59 -10 46 -9
56 10 86 l20 34 19 -27 c29 -39 112 -36 117 4 7 65 5 75 -11 78 -25 5 -125
-43 -149 -70 l-20 -23 5 37 c4 33 2 37 -25 47 -27 9 -29 8 -25 -7z m186 -31
c-15 -28 -31 -36 -41 -20 -9 15 14 39 38 39 10 0 11 -5 3 -19z"></path>
                    <path d="M1630 1707 c0 -8 -9 -22 -20 -32 -11 -10 -20 -30 -20 -44 l1 -26 29
35 c29 33 40 80 20 80 -5 0 -10 -6 -10 -13z"></path>
                    <path d="M1667 1665 c-23 -48 -21 -69 7 -102 31 -36 46 -22 22 21 -16 31 -17
36 -2 64 19 38 20 52 3 52 -7 0 -21 -16 -30 -35z"></path>
                    <path d="M1124 1620 c-172 -26 -334 -138 -412 -286 -127 -243 -53 -543 175
-697 87 -60 166 -87 273 -94 163 -10 297 42 416 161 186 187 212 463 63 685
-108 161 -327 260 -515 231z m200 -41 c116 -43 212 -170 223 -296 12 -137 -68
-280 -192 -342 -36 -18 -48 -20 -66 -10 -20 10 -21 17 -16 90 4 68 2 82 -15
104 -37 48 -117 24 -153 -45 -14 -28 -14 -29 20 -49 40 -23 46 -55 19 -96 -21
-32 -28 -31 -102 6 -124 62 -192 175 -191 317 1 152 88 276 229 325 66 23 177
21 244 -4z m-544 -256 c-25 -66 -33 -158 -20 -223 23 -122 110 -250 207 -307
36 -21 42 -29 37 -47 -4 -11 -8 -23 -10 -25 -11 -12 -124 82 -166 137 -104
136 -126 309 -59 465 26 61 34 61 11 0z m-36 -30 c-31 -89 -32 -205 -4 -296
36 -116 135 -236 236 -284 17 -9 35 -28 42 -46 6 -17 11 -32 9 -33 -1 -1 -27
10 -57 24 -88 44 -174 131 -220 226 -71 146 -74 281 -10 431 28 66 30 55 4
-22z m92 -35 c1 -154 71 -267 205 -332 61 -29 67 -35 54 -46 -39 -32 -190 85
-240 187 -30 62 -42 150 -31 227 4 25 8 46 9 46 1 0 2 -37 3 -82z m-133 2
c-12 -32 -17 -78 -17 -155 0 -92 4 -120 24 -170 57 -147 165 -258 300 -311 25
-10 58 -29 75 -42 l30 -25 -35 8 c-157 34 -301 149 -367 293 -14 28 -32 88
-41 131 -14 67 -14 92 -5 159 11 70 40 168 49 160 2 -2 -4 -24 -13 -48z m104
3 c-3 -10 -5 -4 -5 12 0 17 2 24 5 18 2 -7 2 -21 0 -30z m3 -216 c25 -67 110
-164 177 -203 45 -27 53 -41 28 -50 -40 -16 -161 104 -208 204 -28 60 -32 78
-33 167 l-2 100 8 -80 c4 -44 18 -106 30 -138z m-1 121 c3 -91 96 -222 197
-280 36 -20 51 -34 47 -44 -7 -19 -13 -18 -64 15 -122 79 -202 222 -198 355 1
30 1 30 9 6 4 -14 8 -37 9 -52z m427 -300 c4 -6 0 -16 -9 -23 -26 -19 -21 -45
8 -45 14 0 25 -4 25 -10 0 -5 -11 -10 -25 -10 -31 0 -35 -35 -5 -43 11 -3 20
-10 20 -16 0 -14 -17 -14 -25 -1 -15 25 -25 5 -25 -50 0 -33 -4 -60 -10 -60
-6 0 -10 27 -10 62 l0 62 -40 -39 c-51 -50 -51 -34 0 25 22 24 37 46 35 48 -2
2 -17 0 -34 -6 -16 -6 -32 -8 -36 -4 -3 3 11 11 32 17 28 8 39 17 41 33 3 20
1 21 -24 12 -37 -14 -42 -6 -5 10 16 6 37 20 47 31 20 22 30 24 40 7z m164
-102 c0 -2 -6 -16 -14 -31 -8 -15 -12 -34 -9 -41 4 -10 -4 -14 -28 -14 -19 0
-44 -3 -55 -6 -18 -5 -22 0 -28 31 -4 20 -9 42 -12 49 -3 8 9 12 36 13 22 1
48 6 57 12 15 8 53 -1 53 -13z"></path>
                    <path d="M1297 753 c-15 -4 -17 -11 -12 -31 8 -34 8 -34 38 -27 22 6 36 29 37
58 0 8 -33 8 -63 0z"></path>
                    <path d="M1950 1593 c0 -10 9 -38 20 -62 11 -24 20 -46 20 -49 0 -3 -52 -2
-115 2 -102 5 -116 4 -122 -10 -6 -17 21 -78 63 -139 13 -19 26 -65 34 -116
15 -99 27 -136 40 -123 5 5 10 25 12 44 l3 35 105 26 c81 20 106 30 109 44 2
15 -2 17 -26 12 -16 -3 -67 -9 -115 -13 l-86 -7 -12 37 c-6 20 -15 36 -19 36
-4 0 -13 21 -21 48 -8 26 -16 52 -18 59 -2 9 25 13 104 15 138 4 143 10 88
104 -40 69 -64 91 -64 57z"></path>
                    <path d="M411 1587 c-19 -24 -41 -85 -41 -116 0 -21 7 -35 24 -46 22 -15 27
-15 55 0 29 15 32 15 37 -2 20 -67 54 -88 98 -60 29 19 71 99 63 120 -6 15
-194 117 -216 117 -5 0 -14 -6 -20 -13z m114 -83 c41 -25 75 -51 75 -58 0 -7
-9 -21 -19 -30 -18 -17 -20 -17 -40 3 -12 12 -21 32 -21 45 0 34 -13 39 -47
19 -36 -20 -63 -12 -63 20 0 22 16 47 32 47 4 0 41 -21 83 -46z"></path>
                    <path d="M310 1335 c-6 -8 -14 -34 -17 -57 -3 -24 -15 -53 -26 -65 l-20 -22
24 -10 c24 -11 227 -51 255 -51 7 0 14 6 14 13 0 9 -36 24 -95 42 -100 29
-131 51 -121 83 11 33 54 34 199 7 33 -6 37 -5 37 14 0 15 -10 23 -42 31 -24
6 -59 15 -78 21 -53 14 -116 11 -130 -6z"></path>
                    <path d="M423 1088 c-11 -13 -32 -42 -47 -65 -39 -64 -71 -56 -68 19 2 39 -5
47 -26 26 -19 -19 -14 -82 9 -112 40 -51 83 -33 144 62 47 72 87 41 55 -44
-13 -33 -12 -34 23 -27 25 5 27 9 27 55 0 49 -13 86 -34 100 -22 15 -63 8 -83
-14z"></path>
                    <path d="M1872 1072 c-8 -5 -12 -18 -10 -28 3 -17 15 -19 136 -22 108 -2 132
0 132 11 0 11 -25 18 -92 26 -51 6 -106 14 -123 16 -16 3 -36 1 -43 -3z"></path>
                    <path d="M1855 970 c-10 -16 1 -24 58 -45 26 -10 50 -22 53 -26 6 -10 -128
-79 -152 -79 -8 0 -14 -6 -12 -12 5 -14 200 -86 236 -87 41 -2 22 25 -35 49
-32 12 -62 26 -67 31 -12 11 108 69 143 69 34 0 47 13 28 28 -10 8 -100 39
-224 76 -12 4 -24 2 -28 -4z"></path>
                    <path d="M404 883 c-97 -39 -111 -48 -106 -65 4 -16 10 -19 36 -13 95 20 94
20 109 -16 8 -19 12 -37 10 -42 -2 -4 -27 -19 -54 -32 -49 -25 -64 -45 -33
-45 16 0 209 73 232 88 7 5 10 16 6 26 -5 13 -13 16 -32 11 -76 -19 -80 -19
-96 13 -23 45 -21 50 29 74 45 22 60 48 28 48 -10 -1 -68 -21 -129 -47z"></path>
                    <path d="M1775 750 c-4 -6 10 -35 30 -65 57 -82 31 -108 -64 -65 -91 42 -83
16 32 -98 83 -82 95 -91 107 -77 11 13 9 20 -11 43 -63 69 -62 68 -25 64 42
-5 62 22 46 62 -5 14 -7 26 -5 26 3 0 28 -12 55 -27 43 -24 52 -26 60 -13 5 8
10 17 10 20 0 3 -33 24 -73 48 -39 23 -91 54 -114 68 -27 17 -43 21 -48 14z"></path>
                    <path d="M531 645 c-101 -85 -106 -91 -90 -100 18 -12 214 126 214 150 0 39
-34 25 -124 -50z"></path>
                    <path d="M648 588 c-126 -146 -146 -178 -113 -178 9 0 43 -9 76 -20 75 -26
119 -19 154 22 32 38 32 82 0 139 -14 24 -30 56 -36 72 -6 15 -15 27 -19 27
-5 0 -33 -28 -62 -62z m92 -88 c0 -63 -68 -108 -121 -80 -10 6 -19 15 -19 21
0 6 24 39 53 74 51 62 52 63 70 43 10 -12 17 -36 17 -58z"></path>
                    <path d="M1590 547 c-30 -17 -56 -39 -58 -48 -3 -16 70 -131 111 -176 32 -35
62 -29 119 25 43 41 48 50 35 60 -12 10 -20 8 -43 -11 -51 -42 -71 -49 -88
-31 -22 21 -21 26 14 59 30 29 39 55 19 55 -5 0 -27 -11 -47 -25 -34 -23 -38
-24 -49 -8 -20 27 -16 39 28 76 25 20 39 39 35 46 -10 16 -16 14 -76 -22z"></path>
                    <path d="M841 464 c-28 -20 -60 -88 -61 -127 0 -44 28 -93 64 -112 40 -22 107
-16 138 12 28 24 58 91 58 129 0 83 -129 147 -199 98z m109 -29 c36 -18 46
-52 30 -99 -19 -58 -47 -86 -85 -86 -46 0 -70 35 -60 87 12 66 40 103 83 112
2 1 16 -6 32 -14z"></path>
                    <path d="M1467 473 c-4 -4 -4 -28 -1 -55 7 -48 7 -48 -30 -63 -20 -9 -41 -13
-45 -11 -4 3 -16 26 -25 51 -10 25 -24 45 -32 45 -19 0 -18 -7 19 -140 28
-101 35 -115 55 -118 22 -3 23 -2 16 61 l-7 65 39 11 c43 12 47 9 66 -53 10
-34 32 -56 43 -44 5 5 -28 142 -51 211 -14 43 -31 57 -47 40z"></path>
                    <path d="M1194 420 c-39 -16 -64 -59 -64 -111 0 -95 43 -149 117 -149 53 0 54
17 3 34 -57 18 -91 119 -60 177 13 23 57 25 88 3 21 -15 22 -14 22 14 0 41
-49 55 -106 32z"></path>
                </g>
            </svg>